<?xml version="1.0" encoding="UTF-8" standalone="no"?>
<svg width="40px" height="40px" viewBox="0 0 40 40" version="1.1" xmlns="http://www.w3.org/2000/svg" xmlns:xlink="http://www.w3.org/1999/xlink">
    <!-- Generator: Sketch 43.2 (39069) - http://www.bohemiancoding.com/sketch -->
    <title>Shape</title>
    <desc>Created with Sketch.</desc>
    <defs></defs>
    <g id="Page-1" stroke="none" stroke-width="1" fill="none" fill-rule="evenodd">
        <g id="timers" transform="translate(-617.000000, -705.000000)" fill-rule="nonzero" fill="#FFFFFF">
            <path d="M656.30305,712.131532 C656.160507,711.970871 655.956103,711.878979 655.741388,711.878979 L624.147194,711.878979 L623.771919,708.76006 C623.514061,706.616517 621.691438,705 619.532379,705 L618.025672,705 C617.610958,705 617.274922,705.336136 617.274922,705.750751 C617.274922,706.165365 617.610958,706.501502 618.025672,706.501502 L619.532379,706.501502 C620.932279,706.501502 622.114061,707.54955 622.281228,708.939439 L625.336383,734.328629 C625.604852,736.559059 627.501348,738.241041 629.747795,738.241041 L632.67322,738.241041 L632.3536,738.846346 C632.11276,738.786587 631.861308,738.754354 631.602249,738.754354 C629.880327,738.754354 628.479526,740.155255 628.479526,741.877177 C628.479526,743.599099 629.880327,745 631.602249,745 C633.324171,745 634.725072,743.599099 634.725072,741.877177 C634.725072,740.952753 634.320968,740.121221 633.680427,739.548949 L634.371018,738.241041 L649.861008,738.241041 L649.541388,738.846346 C649.300547,738.786587 649.049096,738.754354 648.790037,738.754354 C647.068115,738.754354 645.667214,740.155255 645.667214,741.877177 C645.667214,743.599099 647.068115,745 648.790037,745 C650.511959,745 651.91286,743.599099 651.91286,741.877177 C651.91286,740.952753 651.508756,740.121221 650.868215,739.548949 L651.558806,738.241041 L652.18323,738.241041 C652.597945,738.241041 652.933981,737.904905 652.933981,737.49029 C652.933981,737.075676 652.597945,736.73954 652.18323,736.73954 L629.747694,736.73954 C628.260407,736.73954 627.004752,735.625926 626.826974,734.149249 L626.411458,730.696496 L653.657704,730.696496 C654.037684,730.696496 654.357704,730.412713 654.40305,730.035435 L656.486633,712.719419 C656.512359,712.506206 656.445492,712.292192 656.30305,712.131532 L656.30305,712.131532 Z M633.22357,741.877177 C633.22357,742.771171 632.496243,743.498498 631.602249,743.498498 C630.708255,743.498498 629.981028,742.771171 629.981028,741.877177 C629.981028,740.983183 630.708355,740.255856 631.602249,740.255856 C631.604551,740.255856 631.606854,740.256156 631.609156,740.256156 L630.938385,741.526527 C630.744691,741.893193 630.885032,742.347347 631.251698,742.540941 C631.36351,742.6 631.48333,742.627928 631.601548,742.627928 C631.871018,742.627928 632.131578,742.482382 632.266113,742.227528 L632.936483,740.957958 C633.117064,741.21952 633.22357,741.536036 633.22357,741.877177 Z M650.411458,741.877177 C650.411458,742.771171 649.684131,743.498498 648.790137,743.498498 C647.896143,743.498498 647.168816,742.771171 647.168816,741.877177 C647.168816,740.983183 647.896143,740.255856 648.790137,740.255856 C648.792439,740.255856 648.794742,740.256156 648.797044,740.256156 L648.126273,741.526527 C647.932579,741.893193 648.07292,742.347347 648.439586,742.540941 C648.551398,742.6 648.671218,742.627928 648.789436,742.627928 C649.058906,742.627928 649.319466,742.482382 649.454001,742.227528 L650.124371,740.957958 C650.304952,741.21952 650.411458,741.536036 650.411458,741.877177 Z M636.613761,713.38048 L642.609056,713.38048 L642.164311,729.194995 L637.058605,729.194995 L636.613761,713.38048 L636.613761,713.38048 Z M635.556503,729.194995 L631.216563,729.194995 L629.985132,713.38048 L635.111658,713.38048 L635.556503,729.194995 Z M644.111158,713.38048 L649.237684,713.38048 L648.006253,729.194995 L643.666313,729.194995 L644.111158,713.38048 Z M624.327975,713.38048 L628.479026,713.38048 L629.710457,729.194995 L626.230878,729.194995 L624.327975,713.38048 L624.327975,713.38048 Z M652.991939,729.194995 L649.512359,729.194995 L650.743791,713.38048 L654.894842,713.38048 L652.991939,729.194995 Z" id="Shape"></path>
        </g>
    </g>
</svg>