<?xml version="1.0" encoding="UTF-8" standalone="no"?>
<svg width="68px" height="93px" viewBox="0 0 68 93" version="1.1" xmlns="http://www.w3.org/2000/svg" xmlns:xlink="http://www.w3.org/1999/xlink">
    <!-- Generator: Sketch 43.2 (39069) - http://www.bohemiancoding.com/sketch -->
    <title>Shape</title>
    <desc>Created with Sketch.</desc>
    <defs></defs>
    <g id="Page-1" stroke="none" stroke-width="1" fill="none" fill-rule="evenodd" opacity="0.199999988">
        <g id="timers" transform="translate(-306.000000, -126.000000)" fill-rule="nonzero" fill="#FFFFFF">
            <path d="M372.974912,141.36792 C372.665496,141.033319 372.209628,140.840394 371.729207,140.840394 L359.005763,140.840394 L341.605438,134.502161 L343.433255,127.843968 C343.554935,127.400735 343.44564,126.930987 343.136658,126.570663 C342.827894,126.210536 342.353991,126 341.852276,126 L330.987938,126 C330.486005,126 330.01232,126.210536 329.703338,126.570663 C329.394356,126.93079 329.285061,127.400537 329.406959,127.843968 L331.234775,134.502161 L313.834451,140.840394 L307.62961,140.840394 C306.98253,140.840394 306.396942,141.189044 306.137067,141.728641 C305.877409,142.268436 305.992788,142.896679 306.431273,143.330018 L314.113447,150.922364 L319.060849,177.202723 C319.194915,177.91526 319.873285,178.436059 320.667033,178.436059 L321.21025,178.436059 L321.21025,181.404137 L320.667033,181.404137 C319.873285,181.404137 319.194915,181.924936 319.060849,182.637473 L312.542246,217.265059 C312.460981,217.696222 312.592874,218.13807 312.902508,218.472473 C313.212141,218.806877 313.668009,219 314.14843,219 L358.692218,219 C359.596566,219 360.326215,218.335546 360.326215,217.515961 C360.326215,217.391499 360.309484,217.270797 360.27776,217.15524 L353.780016,182.637671 C353.64595,181.925134 352.967581,181.404335 352.173615,181.404335 L351.630181,181.404335 L351.630181,178.436257 L352.173398,178.436257 C352.967146,178.436257 353.645298,177.915458 353.779799,177.202921 L360.065905,143.808473 L369.796224,143.808473 L363.836483,175.46798 L361.951302,175.46798 C361.051083,175.46798 360.321652,176.132434 360.321652,176.952019 C360.321652,177.771605 361.051083,178.436059 361.951302,178.436059 L365.210604,178.436059 C366.004353,178.436059 366.682505,177.91526 366.817005,177.202723 L373.335608,142.575137 C373.416656,142.143974 373.284763,141.702126 372.974912,141.36792 Z M339.765019,128.968079 L338.406977,133.914877 L334.433019,133.914877 L333.074977,128.968079 L339.765019,128.968079 Z M333.474567,136.882956 L339.365429,136.882956 L350.229768,140.840394 L322.610229,140.840394 L333.474567,136.882956 Z M332.708197,175.46798 L330.721544,143.808473 L342.11867,143.808473 L340.132017,175.46798 L332.708197,175.46798 Z M317.244332,149.988606 C317.191097,149.706441 317.049643,149.444261 316.836702,149.233725 L311.347169,143.808473 L314.112143,143.808473 L314.127353,143.808473 L327.45681,143.808473 L329.443463,175.46798 L322.04072,175.46798 L317.244332,149.988606 Z M322.040937,184.372216 L329.44368,184.372216 L328.641675,197.154149 C328.590395,197.972349 329.277021,198.673607 330.17572,198.720503 C330.207443,198.722086 330.238733,198.722877 330.270239,198.722877 C331.127653,198.722877 331.84622,198.112838 331.895762,197.323527 L332.708414,184.372414 L340.132451,184.372414 L342.119104,216.031921 L330.721978,216.031921 L331.523984,203.249989 C331.575264,202.431788 330.888637,201.73053 329.989939,201.683635 C329.093414,201.637728 328.321394,202.262212 328.269897,203.08061 L327.457027,216.031723 L316.080979,216.031723 L322.040937,184.372216 L322.040937,184.372216 Z M356.759018,216.031723 L345.383186,216.031723 L343.396533,184.372216 L350.799276,184.372216 L356.759018,216.031723 Z M348.370879,181.404137 L324.469334,181.404137 L324.469334,178.436059 L348.370879,178.436059 L348.370879,181.404137 Z M350.799493,175.46798 L343.39675,175.46798 L345.383403,143.808473 L356.759235,143.808473 L350.799493,175.46798 Z" id="Shape"></path>
        </g>
    </g>
</svg>