<?xml version="1.0" encoding="UTF-8" standalone="no"?>
<svg width="86px" height="73px" viewBox="0 0 86 73" version="1.1" xmlns="http://www.w3.org/2000/svg" xmlns:xlink="http://www.w3.org/1999/xlink">
    <!-- Generator: Sketch 43.2 (39069) - http://www.bohemiancoding.com/sketch -->
    <title>Shape</title>
    <desc>Created with Sketch.</desc>
    <defs></defs>
    <g id="Page-1" stroke="none" stroke-width="1" fill="none" fill-rule="evenodd" opacity="0.199999988">
        <g id="timers" transform="translate(-897.000000, -146.000000)" fill-rule="nonzero" fill="#FFFFFF">
            <path d="M982.862604,181.62761 C982.661736,168.482495 971.615534,157.621788 957.574713,156.00483 C958.043916,155.261979 958.333717,154.41161 958.333717,153.494216 L958.333717,147.396414 C958.333717,146.998458 958.14665,146.617258 957.818514,146.35335 C957.491912,146.088046 957.057976,145.962376 956.620973,146.009851 L904.487314,151.595198 C903.904643,151.658033 903.410907,152.018288 903.219239,152.523762 C903.026038,153.029236 903.165572,153.59196 903.582641,153.968971 L912.333429,161.937865 L912.333429,167.964454 C903.38024,173.951946 897,185.883644 897,196.966369 C897,199.440678 897.332735,201.780938 897.966006,203.981565 C897.969073,203.991339 897.966006,203.999717 897.969073,204.009492 C897.981339,204.052778 897.99974,204.091876 898.012006,204.135162 C898.211341,204.808196 898.436742,205.468664 898.694344,206.113771 C898.712744,206.161247 898.729611,206.211515 898.749544,206.25899 C899.017879,206.919458 899.316881,207.564565 899.64655,208.194313 C899.707884,208.311605 899.775351,208.424709 899.838218,208.542001 C900.105019,209.029322 900.390221,209.50687 900.693823,209.976039 C900.79809,210.136618 900.897758,210.298593 901.005092,210.456379 C901.366961,210.98559 901.750296,211.503631 902.159699,212.006312 C902.296166,212.175269 902.446434,212.335848 902.587502,212.500616 C902.897237,212.859474 903.219239,213.212747 903.553508,213.557643 C903.731375,213.740563 903.90771,213.923483 904.093244,214.102214 C904.565514,214.560212 905.05465,215.008437 905.57292,215.439905 C905.698654,215.543233 905.833589,215.640977 905.960856,215.744306 C906.414726,216.10875 906.885462,216.462023 907.373065,216.805522 C907.553999,216.932589 907.733401,217.058259 907.918935,217.182533 C908.541472,217.601434 909.180876,218.010561 909.855547,218.397346 C910.100882,218.535583 910.38455,218.609589 910.672819,218.609589 L959.994328,218.609589 C960.282596,218.609589 960.566265,218.535583 960.810066,218.39595 C961.550671,217.972859 962.248342,217.521843 962.926079,217.058259 C963.04108,216.978668 963.156081,216.900473 963.269548,216.820882 C970.079124,212.028654 973.667147,205.222908 973.667147,196.966369 C973.667147,185.882248 967.286907,173.951946 958.333717,167.964454 L958.333717,165.83923 C966.641369,167.214621 973.096743,173.415753 973.625746,181.085831 C973.653347,181.469824 973.665613,181.860798 973.667147,182.255961 C973.671747,184.294613 975.298624,186.087509 977.45297,186.429612 C977.722839,186.472898 977.992707,186.493843 978.261042,186.493843 C979.342049,186.493843 980.392389,186.151741 981.226527,185.512219 C982.269201,184.713514 982.867204,183.54478 982.867204,182.304833 L982.862604,181.62761 Z M955.267032,148.967293 L955.267032,153.494216 C955.267032,154.752316 954.144624,155.774434 952.763083,155.774434 L950.104266,155.774434 C949.73933,155.774434 949.383595,155.810739 949.038593,155.872178 C948.923592,155.893123 948.817791,155.929428 948.705857,155.955958 C948.480456,156.010415 948.256588,156.066269 948.04192,156.144464 C947.916185,156.190543 947.799651,156.249189 947.678517,156.30225 C947.491449,156.38603 947.307448,156.471206 947.132647,156.573139 C947.013046,156.641559 946.902646,156.718358 946.790712,156.795156 C946.629711,156.904071 946.474843,157.01857 946.327642,157.142844 C946.223375,157.230814 946.125241,157.321575 946.02864,157.416526 C945.892173,157.550575 945.766439,157.691605 945.646838,157.83822 C945.562504,157.940153 945.481237,158.042085 945.406103,158.150999 C945.295702,158.310182 945.200635,158.477742 945.108635,158.648095 C945.050368,158.758406 944.9875,158.864528 944.9369,158.979027 C944.852566,159.173118 944.789699,159.37419 944.731432,159.579452 C944.702299,159.682781 944.662432,159.781921 944.639432,159.886646 C944.633298,159.913176 944.622565,159.936914 944.616431,159.963445 L914.501576,159.963445 L907.987935,154.031806 L955.267032,148.967293 Z M911.120555,215.816915 C910.628352,215.526477 910.157616,215.222076 909.697613,214.912089 C909.487545,214.769663 909.286677,214.621651 909.082742,214.475036 C908.852741,214.310268 908.622739,214.144104 908.400405,213.973751 C908.14587,213.776867 907.899002,213.577191 907.6552,213.373326 C907.512599,213.254638 907.371532,213.134553 907.231997,213.013071 C906.952929,212.768712 906.678461,212.520164 906.414726,212.266031 C906.347259,212.2018 906.282858,212.134775 906.216924,212.070544 C904.593114,210.464757 903.280573,208.677446 902.2931,206.725367 C902.253233,206.645776 902.213366,206.567581 902.173499,206.486593 C902.087632,206.312051 902.012498,206.131924 901.931231,205.954589 C904.37538,206.27435 906.937596,205.609694 908.782207,204.024851 C910.740286,202.345058 913.921973,202.345058 915.880052,204.024851 C918.994271,206.700233 924.068103,206.700233 927.182322,204.024851 C929.140401,202.345058 932.322088,202.345058 934.280167,204.024851 C937.394386,206.700233 942.468218,206.700233 945.582438,204.024851 C947.540516,202.345058 950.722203,202.345058 952.680282,204.024851 C955.794501,206.700233 960.868333,206.700233 963.982553,204.024851 C965.512829,202.712295 967.841977,202.426046 969.734122,203.230336 C969.714189,203.29736 969.694255,203.362988 969.674322,203.430012 C969.533254,203.907559 969.37072,204.375332 969.195919,204.837519 C969.140718,204.982738 969.091651,205.13075 969.033384,205.274573 C968.837116,205.760498 968.616315,206.233856 968.383247,206.700233 C968.251379,206.961348 968.108779,207.216877 967.966178,207.472407 C967.84351,207.691632 967.716243,207.908064 967.584375,208.1231 C967.409574,208.409349 967.234773,208.696994 967.044639,208.974865 C967.041572,208.979054 967.036972,208.98464 967.033905,208.988829 C966.583102,209.6479 966.083233,210.28044 965.548096,210.893432 C965.405495,211.055407 965.262894,211.218779 965.115693,211.377961 C964.884158,211.629302 964.648024,211.877849 964.401155,212.119416 C964.131287,212.383323 963.849152,212.640249 963.562417,212.895779 C963.291015,213.137345 963.010413,213.373326 962.723678,213.605118 C962.400143,213.866233 962.070474,214.123159 961.728539,214.373103 C961.547604,214.504359 961.365136,214.635615 961.179602,214.764078 C960.652132,215.127125 960.115462,215.483191 959.545058,215.819708 L911.120555,215.819708 L911.120555,215.816915 Z M970.600461,196.966369 C970.600461,198.171408 970.50386,199.337349 970.335193,200.469778 C967.467841,199.538421 964.13742,200.056462 961.881873,201.993181 C959.923794,203.672975 956.742107,203.672975 954.784028,201.993181 C951.669809,199.3178 946.595977,199.3178 943.481758,201.993181 C941.523679,203.672975 938.341992,203.672975 936.383913,201.993181 C933.269694,199.3178 928.195862,199.3178 925.081643,201.993181 C923.123564,203.672975 919.941877,203.672975 917.983798,201.993181 C914.869579,199.3178 909.79728,199.3178 906.679994,201.993181 C905.105251,203.343439 902.708636,203.607347 900.77969,202.723466 C900.307421,200.908228 900.066686,198.986868 900.066686,196.966369 C900.066686,186.410063 906.264458,175.041089 914.858845,169.737802 L955.806768,169.737802 C964.402689,175.041089 970.600461,186.411459 970.600461,196.966369 Z M955.267032,166.945128 L915.400115,166.945128 L915.400115,162.756118 L944.533631,162.756118 L944.533631,164.152455 L944.533631,165.548792 L946.066974,165.548792 L954.853029,165.548792 C954.992563,165.548792 955.127497,165.564151 955.267032,165.566944 L955.267032,166.945128 L955.267032,166.945128 Z M979.253115,183.374427 C978.90198,183.645316 978.446577,183.752834 977.98044,183.678828 C977.282769,183.568518 976.735366,182.941563 976.733833,182.250376 C976.732299,181.796566 976.715432,181.351135 976.686299,180.912685 C976.020828,171.24026 967.326774,163.574371 956.562706,162.83152 C956.377172,162.786838 956.185504,162.756118 955.984636,162.756118 L954.853029,162.756118 L947.600317,162.756118 L947.600317,161.359781 L947.600317,160.847326 C947.600317,159.590623 948.722724,158.567108 950.104266,158.567108 L952.763083,158.567108 L953.96369,158.567108 C968.012178,158.567108 979.601184,168.929323 979.795918,181.663914 L979.800518,182.304833 C979.800518,182.718149 979.601184,183.107727 979.253115,183.374427 Z" id="Shape"></path>
        </g>
    </g>
</svg>