<?xml version="1.0" encoding="UTF-8" standalone="no"?>
<svg width="30px" height="34px" viewBox="0 0 30 34" version="1.1" xmlns="http://www.w3.org/2000/svg" xmlns:xlink="http://www.w3.org/1999/xlink">
    <!-- Generator: Sketch 43.2 (39069) - http://www.bohemiancoding.com/sketch -->
    <title>Group Copy 2</title>
    <desc>Created with Sketch.</desc>
    <defs></defs>
    <g id="Page-1" stroke="none" stroke-width="1" fill="none" fill-rule="evenodd">
        <g id="timers" transform="translate(-259.000000, -591.000000)" fill-rule="nonzero" fill="#FFFFFF">
            <g id="Group" transform="translate(259.000000, 590.000000)">
                <g id="Group-Copy-2">
                    <path d="M29.2909725,31.2758621 L28.6101499,31.2758621 L0.502130957,31.2758621 C0.224820767,31.2758621 0,31.5259752 0,31.8344828 C0,32.1429903 0.224820767,32.3931034 0.502130957,32.3931034 L0.792898256,32.3931034 L1.08246044,33.520549 C1.29549787,34.3501379 2.06985076,35 2.84540876,35 L26.9476947,35 C27.7232527,35 28.4976056,34.3501379 28.710643,33.5206234 L29.0002052,32.3931034 L29.2909725,32.3931034 C29.5682827,32.3931034 29.7931034,32.1429903 29.7931034,31.8344828 C29.7931034,31.5259752 29.5682827,31.2758621 29.2909725,31.2758621 Z M27.7450117,33.21368 C27.6550968,33.5638234 27.2750171,33.8827586 26.9476947,33.8827586 L2.84540876,33.8827586 C2.51801937,33.8827586 2.13800666,33.5638234 2.04809175,33.21368 L1.83733065,32.3931034 L27.9557728,32.3931034 L27.7450117,33.21368 L27.7450117,33.21368 Z" id="Shape" transform="translate(14.896552, 33.137931) scale(-1, 1) translate(-14.896552, -33.137931) "></path>
                    <path d="M22.5364653,8.93103448 L23.1206538,8.93103448 C23.2590044,8.93103448 23.3902171,8.8632906 23.4786647,8.74624119 C23.5671123,8.62919179 23.6036706,8.47485593 23.5783467,8.32523209 C23.4805888,7.74681407 23.4309961,7.1548063 23.4309961,6.56573501 L23.4309961,3.23631445 C23.4309961,2.95345643 23.2225702,2.72413793 22.9654826,2.72413793 L19.3240496,2.72413793 C19.1328787,2.72413793 18.9611352,2.85272838 18.8909978,3.04844811 C18.71162,3.548947 18.6206897,4.07853753 18.6206897,4.62267386 C18.6206897,6.99828516 20.3772894,8.93103448 22.5364653,8.93103448 L22.5364653,8.93103448 Z M19.6585365,3.74849098 L22.4999691,3.74849098 L22.4999691,6.56573501 C22.4999691,7.01317242 22.5258516,7.46204393 22.576996,7.90668144 L22.5364653,7.90668144 C20.8906578,7.90668144 19.5517167,6.43345689 19.5517167,4.62267386 C19.5517167,4.32376765 19.5875923,4.03100755 19.6585365,3.74849098 L19.6585365,3.74849098 Z" id="Shape" transform="translate(21.103448, 5.827586) scale(-1, 1) rotate(50.000000) translate(-21.103448, -5.827586) "></path>
                    <path d="M11.2817045,17.7829693 L12.1972966,17.7829693 C13.9107578,21.4661694 17.6270681,23.8275862 21.7588349,23.8275862 C27.5579237,23.8275862 32.2758621,19.1763939 32.2758621,13.4593465 L32.2758621,8.19134419 C32.2758621,7.91427807 32.0480158,7.68965517 31.7669737,7.68965517 L6.5857501,7.68965517 C6.42310936,7.68965517 6.27030713,7.76631325 6.17450041,7.89588281 C5.38355211,8.96575136 4.96551724,10.2314124 4.96551724,11.5560721 C4.96551724,14.9895649 7.79894007,17.7829693 11.2817045,17.7829693 Z M6.85200051,8.69303321 L28.5440137,8.69303321 L28.5440137,10.867019 C28.5440137,11.1440851 28.77186,11.368708 29.0529021,11.368708 C29.3339442,11.368708 29.5617905,11.1440851 29.5617905,10.867019 L29.5617905,8.69303321 L31.2580852,8.69303321 L31.2580852,13.4593465 C31.2580852,18.6231312 26.9967215,22.8242082 21.7588349,22.8242082 C17.9239875,22.8242082 14.4853946,20.5721596 12.9985583,17.0867588 C12.9191717,16.9005987 12.7342756,16.7795913 12.5294311,16.7795913 L11.2817045,16.7795913 C8.36014221,16.7795913 5.98329407,14.4363022 5.98329407,11.5560721 C5.98329407,10.529215 6.28285971,9.5446336 6.85200051,8.69303321 Z" id="Shape" transform="translate(18.620690, 15.758621) scale(-1, 1) rotate(50.000000) translate(-18.620690, -15.758621) "></path>
                    <path d="M11.7044335,25.0689655 C16.2025537,25.0689655 19.862069,21.653522 19.862069,17.4554044 L19.862069,16.8758469 C19.862069,16.6016263 19.623866,16.3793103 19.3300493,16.3793103 C19.0362325,16.3793103 18.7980296,16.6016263 18.7980296,16.8758469 L18.7980296,17.4554044 C18.7980296,21.1059415 15.6158424,24.0758923 11.7044335,24.0758923 C11.4106167,24.0758923 11.1724138,24.2982083 11.1724138,24.5724289 C11.1724138,24.8466495 11.4106167,25.0689655 11.7044335,25.0689655 Z" id="Shape" transform="translate(15.517241, 20.724138) scale(-1, 1) rotate(50.000000) translate(-15.517241, -20.724138) "></path>
                    <path d="M4.34482759,28.7931034 C3.31643529,28.7931034 2.48275862,28.0592462 2.48275862,27.1539875 C2.48275862,26.9027147 2.57379684,26.6425849 2.74545885,26.3259866 C2.80921015,26.2084093 2.88336186,26.0842271 2.97956597,25.931522 C3.03450795,25.8443124 3.23387094,25.5344602 3.23374186,25.5346622 C3.47194141,25.1619544 3.61156586,24.9176336 3.71421493,24.6763517 C3.76352418,24.5604478 3.80028886,24.4523298 3.82450418,24.3509721 C3.84534359,24.2637449 3.86219067,24.2042533 3.88255036,24.1533893 C3.90492611,24.0974887 3.93067115,24.0501368 3.97743826,23.9984256 C4.1130897,23.8484336 4.35476129,23.7690241 4.59749873,23.8786173 C4.68303106,23.9172341 4.74035986,23.9673418 4.78506552,24.0243935 C4.80745759,24.0529695 4.82410497,24.0804602 4.83850391,24.1091763 C4.85436791,24.1408142 4.86646425,24.1718981 4.87895692,24.2092399 C4.88691594,24.2330303 4.89478242,24.2586714 4.90527082,24.2943435 C4.90900795,24.3070539 4.92687293,24.3685008 4.93212375,24.3863563 C4.98535921,24.5673835 5.03336075,24.7045968 5.10087881,24.8525062 C5.18530887,25.0374641 5.29879665,25.2487774 5.47590853,25.557879 C5.49442226,25.5901897 5.51390613,25.6240655 5.53618876,25.662705 C5.84351897,26.1956338 5.87329614,26.24817 5.97092532,26.4394138 C6.12686883,26.7448882 6.20689655,26.960626 6.20689655,27.1539875 C6.20689655,28.0592462 5.37321988,28.7931034 4.34482759,28.7931034 Z M4.08484678,25.9561484 C3.55917097,26.7786667 3.45930619,26.9628486 3.45930619,27.1539875 C3.45930619,27.5844903 3.85576763,27.9334818 4.34482759,27.9334818 C4.83388755,27.9334818 5.23034898,27.5844903 5.23034898,27.1539875 C5.23034898,27.1228442 5.18024581,26.9877766 5.08018151,26.7917628 C4.99204016,26.6191046 4.9622718,26.5665839 4.66541294,26.051813 C4.64277524,26.0125579 4.62292281,25.9780413 4.60399184,25.9450023 C4.50746249,25.7765361 4.42810794,25.6342852 4.36057852,25.506954 C4.28298288,25.6411363 4.19271556,25.7873675 4.08484678,25.9561484 Z" id="Oval"></path>
                </g>
            </g>
        </g>
    </g>
</svg>